<svg width="20" height="20" xmlns:xlink="http://www.w3.org/1999/xlink" xmlns="http://www.w3.org/2000/svg"><defs><path id="a" d="M0 0h18v2H0zm0 11h18v2H0z"/></defs><g fill-rule="evenodd"><g transform="translate(1 6)" fill-opacity=".425"><mask id="b" fill="#fff"><use xlink:href="#a" width="100%" height="100%"/></mask><use xlink:href="#a" width="100%" height="100%"/><g mask="url(#b)"><path d="M-3-8h24v24H-3z"/></g></g><path d="M2 7h16V4h-2V2h2a2 2 0 012 2v14a2 2 0 01-2 2H2a2 2 0 01-2-2V4a2 2 0 012-2h2v2H2zm0 2v9h16V9zm5-5a1 1 0 01-2 0V1a1 1 0 112 0zm8 0a1 1 0 11-2 0V1a1 1 0 112 0zM8 2h4v2H8zm-1 8h2v2H7zm4 0h2v2h-2zm4 0h2v2h-2zM3 14h2v2H3zm4 0h2v2H7zm4 0h2v2h-2zm4 0h2v2h-2z" fill-rule="nonzero"/></g></svg>