<svg width="297mm" height="380.445" viewBox="0 0 297 100.659" xmlns="http://www.w3.org/2000/svg"><defs><clipPath clipPathUnits="userSpaceOnUse" id="b"><path style="-inkscape-stroke:none" d="M-93.445 55.875V241.8h283.707V55.875zM9.837 120.977c63.12.103 76.706 63.454 146.799 89.023H0v-88.55a102.72 102.72 0 019.837-.473z" fill="#0b0b24" fill-opacity=".293" stroke-width=".282"/></clipPath><clipPath clipPathUnits="userSpaceOnUse" id="d"><path style="-inkscape-stroke:none" d="M0 81.985v165.53h271.796V81.985zm230.376 45.49c5.418.127 12.203 3.085 21.108 10.117V210H13.758c16.966-94.984 112.88-16.585 165.52-28.693 29.586-6.805 28.736-54.353 51.098-53.831z" fill="#0b0b24" fill-opacity=".293" stroke-width=".282"/></clipPath><clipPath clipPathUnits="userSpaceOnUse" id="f"><path style="-inkscape-stroke:none" d="M-17.34 137.277v100.67h236.502v-100.67zm142.507 12.427c39.545.209 74.404 25.9 69.314 60.296H0v-51.546c19.098.179 29.12 20.518 47.002 18.967 22.454-1.947 26.53-14.472 44.618-21.53 11.034-4.306 22.474-6.245 33.547-6.187z" fill="#0b0b24" fill-opacity=".293" stroke-width=".282"/></clipPath><clipPath clipPathUnits="userSpaceOnUse" id="a"><path style="-inkscape-stroke:none" opacity=".662" fill="#0b0b24" fill-opacity=".218" stroke-width=".282" d="M0 85.738h297v100.178H0z"/></clipPath><filter id="c" x="-.01" y="-.018" width="1.02" height="1.035" color-interpolation-filters="sRGB"><feGaussianBlur stdDeviation=".668"/></filter><filter id="e" x="-.007" y="-.019" width="1.013" height="1.038" color-interpolation-filters="sRGB"><feGaussianBlur stdDeviation=".673"/></filter><filter id="g" x="-.008" y="-.025" width="1.016" height="1.05" color-interpolation-filters="sRGB"><feGaussianBlur stdDeviation=".668"/></filter></defs><g clip-path="url(#a)" transform="translate(0 -85.257)"><g fill-opacity=".293"><path style="font-variation-settings:normal;mix-blend-mode:normal;-inkscape-stroke:none" d="M9.837 120.977c-3.15-.005-8.014.15-11.425.473v90.667h158.224c-70.093-25.57-83.679-91.037-146.8-91.14z" clip-path="url(#b)" fill="#0b0b24" filter="url(#c)" transform="translate(0 -24.084)"/><path style="font-variation-settings:normal;mix-blend-mode:normal;-inkscape-stroke:none" d="M9.837 96.893c-3.15-.006-6.427.15-9.837.473v88.55h156.636c-70.093-25.57-83.679-88.92-146.8-89.023z" fill="#f7f0f5"/></g><path style="font-variation-settings:normal;mix-blend-mode:normal;-inkscape-stroke:none" d="M230.376 127.476c-22.362-.522-21.512 47.025-51.098 53.83-35.058 8.064-91.306-25.722-129.275-19.367-19.042 3.187-32.694 18.452-38.361 50.178l239.842.529v-75.054c-8.905-7.032-15.69-9.99-21.108-10.116z" clip-path="url(#d)" fill="#0b0b24" fill-opacity=".333" filter="url(#e)" transform="matrix(.89503 0 0 .89648 71.914 -2.344)"/><path style="font-variation-settings:normal;mix-blend-mode:normal;-inkscape-stroke:none" d="M278.107 111.935c-20.014-.468-19.254 42.157-45.734 48.258-47.115 10.854-132.96-59.428-148.145 25.723H297v-64.912c-7.97-6.304-14.044-8.956-18.893-9.069z" fill="#f7f0f5" fill-opacity=".293"/><path style="font-variation-settings:normal;mix-blend-mode:normal;-inkscape-stroke:none" d="M125.167 148.645c-11.073-.058-22.513 1.882-33.547 6.187-18.089 7.059-22.164 19.584-44.618 21.53-17.882 1.551-29.492-18.788-48.59-18.967v55.78h196.069c5.09-41.549-29.769-64.32-69.314-64.53z" clip-path="url(#f)" fill="#0b0b24" fill-opacity=".218" filter="url(#g)" transform="translate(0 -24.084)"/><path style="font-variation-settings:normal;mix-blend-mode:normal;-inkscape-stroke:none" d="M125.167 125.62c-11.073-.059-22.513 1.88-33.547 6.186-18.089 7.059-22.164 19.584-44.618 21.531C29.12 154.887 19.098 134.55 0 134.37v51.546h194.48c5.09-34.396-29.768-60.087-69.313-60.296z" fill="#f7f0f5" fill-opacity=".293"/></g></svg>