<svg xmlns="http://www.w3.org/2000/svg" xmlns:xlink="http://www.w3.org/1999/xlink" width="1921" height="782.854"><defs><linearGradient id="a" x1="1.014" y1=".906" x2=".389" y2=".886" gradientUnits="objectBoundingBox"><stop offset="0" stop-color="#8cb9e8"/><stop offset="1" stop-color="#b6cfe9" stop-opacity="0"/></linearGradient><linearGradient id="b" x1="-.014" y1=".906" x2=".611" y2=".886" xlink:href="#a"/></defs><g opacity=".75"><path data-name="Tracé 473" d="M-4348 1279.24c328.075-82.986 766.98-81.2 766.98-81.2s406.138-16.789 650.185-50.648S-2427 946.769-2427 946.769v452.638h-1921z" transform="translate(4348 -616.554)" opacity=".33" fill="url(#a)"/><path data-name="Tracé 477" d="M-2427 1279.24c-328.075-82.986-766.98-81.2-766.98-81.2s-406.138-16.789-650.185-50.648S-4348 946.769-4348 946.769v452.638h1921z" transform="translate(4348 -616.554)" opacity=".33" fill="url(#b)"/><path data-name="Tracé 474" d="M-4348 1386.271c328.075-109.7 766.98-107.345 766.98-107.345s406.138-22.194 650.185-66.952S-2427 946.769-2427 946.769v598.353h-1921z" transform="translate(4348 -762.269)" opacity=".33" fill="url(#a)"/><path data-name="Tracé 476" d="M-2427 1386.271c-328.075-109.7-766.98-107.345-766.98-107.345s-406.138-22.194-650.185-66.952S-4348 946.769-4348 946.769v598.353h1921z" transform="translate(4348 -762.269)" opacity=".33" fill="url(#b)"/><path data-name="Tracé 475" d="M-4348 1521.789c328.075-143.527 766.98-140.444 766.98-140.444s406.138-29.037 650.185-87.6S-2427 946.769-2427 946.769v782.853h-1921z" transform="translate(4348 -946.769)" opacity=".33" fill="url(#a)"/><path data-name="Tracé 478" d="M-2427 1521.789c-328.075-143.527-766.98-140.444-766.98-140.444s-406.138-29.037-650.185-87.6S-4348 946.769-4348 946.769v782.853h1921z" transform="translate(4348 -946.769)" opacity=".33" fill="url(#b)"/></g></svg>