<svg xmlns="http://www.w3.org/2000/svg" xmlns:xlink="http://www.w3.org/1999/xlink" width="1921" height="782.854"><defs><linearGradient id="a" x1="1.014" y1=".906" x2=".389" y2=".886" gradientUnits="objectBoundingBox"><stop offset="0" stop-color="#ffc423"/><stop offset="1" stop-color="#ffc938" stop-opacity="0"/></linearGradient><linearGradient id="f" x1="-.014" y1=".906" x2=".611" y2=".886" xlink:href="#a"/><linearGradient xlink:href="#a" id="d" x1="-2792.826" y1="2594.136" x2="-2009.344" y2="2600.006" gradientTransform="scale(1.56648 .63838)" gradientUnits="userSpaceOnUse"/><linearGradient xlink:href="#a" id="g" x1="-.014" y1=".906" x2=".611" y2=".886"/><linearGradient xlink:href="#a" id="b" gradientUnits="userSpaceOnUse" x1="-1532.17" y1="2594.136" x2="-2298.62" y2="2569.61" gradientTransform="matrix(1.56648 0 0 .63838 4349 542.231)"/><linearGradient xlink:href="#a" id="c" gradientUnits="userSpaceOnUse" x1="-1339.508" y1="2667.741" x2="-2009.582" y2="2646.299" gradientTransform="matrix(1.79178 0 0 .5581 4349 726.731)"/><linearGradient xlink:href="#a" id="e" x1="-2414.873" y1="1107.599" x2="-3833.793" y2="1143.982" gradientUnits="userSpaceOnUse"/></defs><g opacity=".75"><path data-name="Tracé 475" d="M1 2064.02c328.075-143.527 766.98-140.444 766.98-140.444s406.138-29.037 650.185-87.6C1662.212 1777.413 1922 1489 1922 1489v782.853H1z" opacity=".33" fill="url(#b)" transform="translate(-1 -1489)"/><path data-name="Tracé 474" d="M1 2113.002c328.075-109.7 766.98-107.345 766.98-107.345s406.138-22.194 650.185-66.952C1662.212 1893.947 1922 1673.5 1922 1673.5v598.353H1z" opacity=".33" fill="url(#c)" transform="translate(-1 -1489)"/><path data-name="Tracé 478" d="M-2427 1521.789c-328.075-143.527-766.98-140.444-766.98-140.444-448.92-30.275-831.684-85.828-1154.02-434.576v782.853h1921z" transform="translate(4348 -946.769)" opacity=".33" fill="url(#d)"/><path data-name="Tracé 473" d="M-4348 1279.24c328.075-82.986 766.98-81.2 766.98-81.2s406.138-16.789 650.185-50.648S-2427 946.769-2427 946.769v452.638h-1921z" transform="translate(4348 -616.554)" style="isolation:auto;mix-blend-mode:normal;solid-color:#000;solid-opacity:1;filter-blend-mode:normal;filter-gaussianBlur-deviation:0" fill="url(#e)" opacity=".33" color="#000" overflow="visible"/><path data-name="Tracé 477" d="M-2427 1279.24c-328.075-82.986-766.98-81.2-766.98-81.2s-406.138-16.789-650.185-50.648S-4348 946.769-4348 946.769v452.638h1921z" transform="translate(4348 -616.554)" fill="url(#f)" opacity=".33"/><path transform="translate(4348 -762.269)" opacity=".33" fill="url(#g)" data-name="Tracé 476" d="M-2427 1386.271c-328.075-109.7-766.98-107.345-766.98-107.345s-406.138-22.194-650.185-66.952S-4348 946.769-4348 946.769v598.353h1921z"/></g></svg>