<svg viewBox="0 0 297 100.659" shape-rendering="geometricPrecision" text-rendering="geometricPrecision" xmlns="http://www.w3.org/2000/svg"><path d="M9.837 11.636c-3.15-.005-6.427.15-9.837.473v88.55h156.636C77.524 83.321 72.957 11.74 9.836 11.636z" fill="#f7f0f5" fill-opacity=".293"/><path d="M278.107 26.91c-20.014-.468-19.254 42.157-45.734 48.257C185.258 86.022 99.413 15.74 84.228 100.89H297V35.978c-7.97-6.304-14.044-8.955-18.893-9.069z" fill="#f7f0f5" fill-opacity=".293"/><path d="M125.167 40.594c-11.073-.058-22.513 1.881-33.547 6.187-18.089 7.058-22.164 19.583-44.618 21.53C29.12 69.862 19.098 49.523 0 49.344v51.546h194.48c5.09-34.396-29.768-60.087-69.313-60.296z" fill="#f7f0f5" fill-opacity=".293"/></svg>