<svg xmlns="http://www.w3.org/2000/svg" xmlns:xlink="http://www.w3.org/1999/xlink" height="782.854" width="1921"><defs><linearGradient id="a" x1="1.014" y1=".906" x2=".389" y2=".886" gradientUnits="objectBoundingBox"><stop offset="0" stop-color="#d3a529"/><stop offset="1" stop-color="#d3a529" stop-opacity="0"/></linearGradient><linearGradient xlink:href="#a" y2=".886" x2=".611" y1=".906" x1="-.014" id="d"/><linearGradient gradientUnits="userSpaceOnUse" gradientTransform="scale(1.56648 .63838)" y2="2600.006" x2="-2009.344" y1="2594.136" x1="-2792.827" id="b" xlink:href="#a"/><linearGradient y2=".886" x2=".611" y1=".906" x1="-.014" id="e" xlink:href="#a"/><linearGradient gradientTransform="matrix(1.56648 0 0 .63838 4349 542.231)" y2="2569.61" x2="-2298.62" y1="2594.136" x1="-1532.17" gradientUnits="userSpaceOnUse" id="g" xlink:href="#a"/><linearGradient gradientTransform="matrix(1.79178 0 0 .5581 4349 726.731)" y2="2646.299" x2="-2009.582" y1="2667.741" x1="-1339.508" gradientUnits="userSpaceOnUse" id="f" xlink:href="#a"/><linearGradient gradientUnits="userSpaceOnUse" y2="1143.982" x2="-3833.793" y1="1107.599" x1="-2414.873" id="c" xlink:href="#a"/></defs><g opacity=".75"><path transform="translate(4348 -946.769)" d="M-2427 1521.789c-328.075-143.527-766.98-140.444-766.98-140.444-448.92-30.275-831.684-85.828-1154.02-434.576v782.853h1921z" data-name="Tracé 478" opacity=".33" fill="url(#b)"/><path opacity=".33" fill="url(#c)" style="isolation:auto;mix-blend-mode:normal;solid-color:#000;solid-opacity:1;filter-blend-mode:normal;filter-gaussianBlur-deviation:0" transform="translate(4348 -616.554)" d="M-4348 1279.24c328.075-82.986 766.98-81.2 766.98-81.2s406.138-16.789 650.185-50.648S-2427 946.769-2427 946.769v452.638h-1921z" data-name="Tracé 473" color="#000" overflow="visible"/><path opacity=".33" fill="url(#d)" transform="translate(4348 -616.554)" d="M-2427 1279.24c-328.075-82.986-766.98-81.2-766.98-81.2s-406.138-16.789-650.185-50.648S-4348 946.769-4348 946.769v452.638h1921z" data-name="Tracé 477"/><path opacity=".33" fill="url(#e)" transform="translate(4348 -762.269)" d="M-2427 1386.271c-328.075-109.7-766.98-107.345-766.98-107.345s-406.138-22.194-650.185-66.952S-4348 946.769-4348 946.769v598.353h1921z" data-name="Tracé 476"/><path d="M1 2113.002c328.075-109.7 766.98-107.345 766.98-107.345s406.138-22.194 650.185-66.952C1662.212 1893.947 1922 1673.5 1922 1673.5v598.353H1z" data-name="Tracé 474" opacity=".33" fill="url(#f)" transform="translate(-1 -1489)"/><path d="M1 2064.02c328.075-143.527 766.98-140.444 766.98-140.444s406.138-29.037 650.185-87.6C1662.212 1777.413 1922 1489 1922 1489v782.853H1z" data-name="Tracé 475" opacity=".33" fill="url(#g)" transform="translate(-1 -1489)"/></g></svg>