<svg xmlns="http://www.w3.org/2000/svg" xmlns:xlink="http://www.w3.org/1999/xlink" width="1920" height="540.578"><defs><linearGradient id="a"><stop offset="0" stop-color="#ffad00"/><stop offset="1" stop-color="#ff8d00" stop-opacity="0"/></linearGradient><linearGradient xlink:href="#a" id="c" x1="772.906" y1="1280.865" x2="785.1" y2="1800.074" gradientUnits="userSpaceOnUse"/><linearGradient xlink:href="#a" id="b" x1="728.802" y1="1280.865" x2="740.996" y2="1800.074" gradientUnits="userSpaceOnUse"/></defs><path data-name="Tracé 470" d="M2217 1253c-175.8 39.891-56.149 255.373-356.717 160.34s-133.848 364.521-449.562 285.938c-431.892-107.5-190.485-364-371.54-343.25s-305.531 437.55-305.531 437.55H2217z" transform="translate(-297 -1253)" fill="url(#b)" style="mix-blend-mode:multiply;isolation:isolate" opacity=".6"/><path data-name="Tracé 471" d="M341.371 1793s-14.5-375.35 170.126-421.884 409.85 235.749 568.377 235.749S1145.605 1454.1 1319.6 1454.1s152.727 264.039 334.453 265.925 133.395-152.765 289.1-150.382S2145.1 1793 2145.1 1793z" transform="translate(-341.104 -1253)" fill="url(#c)" style="mix-blend-mode:multiply;isolation:isolate" opacity=".6"/></svg>